<svg xmlns="http://www.w3.org/2000/svg" id="Layer_1" data-name="Layer 1" version="1.1" width="83.32" height="25.44"><defs id="defs4"><style id="style2">.cls-1{fill:#1976d2}</style></defs><path id="path20" class="cls-1" d="M4.7 13.24v-4.7a1.07 1.07 0 0 1 .59-1l2.18-1.26 2.43-1.4 1.59-.95 1.9-1.09a1.08 1.08 0 0 1 1.17 0l3.21 1.86 3 1.73 1.93 1.12a1.07 1.07 0 0 1 .54 1V18a1.06 1.06 0 0 1-.51 1l-2.16 1.25-1.96 1.05-3 1.73-1.09.62a1.12 1.12 0 0 1-1.22 0l-2.6-1.55-2.45-1.4-2.42-1.38c-.2-.13-.42-.24-.63-.38a1.08 1.08 0 0 1-.5-.94zm2 0v3.54a1.07 1.07 0 0 0 .56 1l3.28 1.9 2.85 1.62a1.1 1.1 0 0 0 1.18 0l3.87-2.22c.78-.43 1.48-.86 2.23-1.28a1.18 1.18 0 0 0 .65-1.13v-7a1.11 1.11 0 0 0-.56-1l-1.1-.53-2.1-1.21-3-1.78a1.64 1.64 0 0 0-.33-.14 1.15 1.15 0 0 0-.86.21l-2.75 1.55C9.5 7.39 8.42 8 7.33 8.63a1.22 1.22 0 0 0-.63 1.16v3.46z" style="fill:#1976d2"/><path id="path22" class="cls-1" d="M12.4 18.67a.78.78 0 0 1-.73-.53L10.32 14H5.84a.78.78 0 0 1 0-1.55h5a.77.77 0 0 1 .77.53l.77 2.45 2.37-7.13a.77.77 0 0 1 1-.47.78.78 0 0 1 .5.5l1.45 4.13h4.39a.78.78 0 1 1 0 1.55h-5a.77.77 0 0 1-.77-.53L15.47 11l-2.33 7.11a.79.79 0 0 1-.74.56z" style="fill:#1976d2"/><path id="path6" d="M33.3 13.24a4.79 4.79 0 0 1-2.43-.57 3.38 3.38 0 0 1-1.37-1.61 5.88 5.88 0 0 1-.47-2.49v-6h1.43V8.2a8.14 8.14 0 0 0 .04 1.39 3.71 3.71 0 0 0 .41 1.2 2.25 2.25 0 0 0 .88.85 3.24 3.24 0 0 0 1.5.31 3.15 3.15 0 0 0 1.51-.31 2.11 2.11 0 0 0 .85-.85 3.56 3.56 0 0 0 .42-1.21 8 8 0 0 0 .11-1.38V2.59h1.42v6a5.8 5.8 0 0 1-.47 2.5 3.37 3.37 0 0 1-1.43 1.6 4.59 4.59 0 0 1-2.4.55z"/><path id="path8" d="M39.5 16.62V5.7h1l.24 1.68-.24-.27A3.65 3.65 0 0 1 41.59 6a3.15 3.15 0 0 1 1.67-.42 2.82 2.82 0 0 1 1.71.51 3.3 3.3 0 0 1 1.11 1.37 4.75 4.75 0 0 1 .42 1.9 4.9 4.9 0 0 1-.36 1.93 3.06 3.06 0 0 1-1.06 1.37 2.9 2.9 0 0 1-1.78.51 3.22 3.22 0 0 1-1.58-.36 2.09 2.09 0 0 1-1-1.09l.22-.26v5.16zM43 12a1.85 1.85 0 0 0 1.5-.74 3 3 0 0 0 .55-1.92 3 3 0 0 0-.55-1.93 1.88 1.88 0 0 0-1.53-.69 2.2 2.2 0 0 0-1.1.29 2 2 0 0 0-.79.89 3.09 3.09 0 0 0-.3 1.46 3.23 3.23 0 0 0 .3 1.5 1.88 1.88 0 0 0 .81.84A2.26 2.26 0 0 0 43 12z"/><path id="path10" d="M50.4 13.17a2.06 2.06 0 0 1-1.14-.28 1.78 1.78 0 0 1-.62-.74 2.14 2.14 0 0 1-.21-.93V7.08h-1.09l.16-1.53h.87V3.91l1.87-.2v1.87h1.62v1.53h-1.61v3.34a3.21 3.21 0 0 0 .07.82.41.41 0 0 0 .3.32 3.34 3.34 0 0 0 .77.06h.5l-.16 1.52z"/><path id="path12" d="M53.26 13V5.55H55v.79a4 4 0 0 1 .8-.62 2.14 2.14 0 0 1 1.13-.31h.33l-.14 1.84a1.83 1.83 0 0 0-.32-.07h-.3a1.72 1.72 0 0 0-.86.22 1.28 1.28 0 0 0-.55.53v5.1z"/><path id="path14" d="M59.87 13.17a2.21 2.21 0 0 1-1.1-.26 2 2 0 0 1-.78-.79 2.46 2.46 0 0 1-.29-1.21 2 2 0 0 1 .29-1.09 2.69 2.69 0 0 1 .78-.76 5 5 0 0 1 1-.48 8.33 8.33 0 0 1 1.11-.2 9.63 9.63 0 0 1 1-.1 1.4 1.4 0 0 0-.33-.94 1.44 1.44 0 0 0-1-.28 3.62 3.62 0 0 0-1 .13 10.86 10.86 0 0 0-1.07.43l-.16-1.51a7 7 0 0 1 1.35-.49 5.76 5.76 0 0 1 1.37-.16 3.24 3.24 0 0 1 1.44.3 2 2 0 0 1 .94 1 4 4 0 0 1 .33 1.74v2a4.41 4.41 0 0 0 0 .81.38.38 0 0 0 .19.31.87.87 0 0 0 .42.07h.25l-.11 1.51h-.67a2.35 2.35 0 0 1-.75-.11 1.48 1.48 0 0 1-.55-.3 1.53 1.53 0 0 1-.38-.46 2.3 2.3 0 0 1-1 .63 3.67 3.67 0 0 1-1.28.21zm.77-1.42a1.68 1.68 0 0 0 .62-.13 1.84 1.84 0 0 0 .62-.4V9.51a4.63 4.63 0 0 0-1 .18 2.37 2.37 0 0 0-.87.43.94.94 0 0 0-.33.75.89.89 0 0 0 .24.68 1.08 1.08 0 0 0 .76.2z"/><path id="path16" d="M69.33 13.17a4 4 0 0 1-2.16-.53 3.34 3.34 0 0 1-1.31-1.4 4.1 4.1 0 0 1-.45-1.94 4.38 4.38 0 0 1 .44-2 3.54 3.54 0 0 1 1.32-1.42 4.18 4.18 0 0 1 2.21-.53 4.34 4.34 0 0 1 1.14.14 4 4 0 0 1 .87.34l-.15 1.5a3.7 3.7 0 0 0-.78-.3 3.37 3.37 0 0 0-.9-.12 2.09 2.09 0 0 0-1.66.62 2.64 2.64 0 0 0 0 3.37 2.09 2.09 0 0 0 1.63.69 2.94 2.94 0 0 0 .88-.14 3.21 3.21 0 0 0 .83-.36l.16 1.57a3.82 3.82 0 0 1-.9.34 4.92 4.92 0 0 1-1.17.17z"/><path id="path18" d="M76.33 13.17a4.09 4.09 0 0 1-2.24-.54 3.53 3.53 0 0 1-1.36-1.43 4.55 4.55 0 0 1 0-3.85A3.42 3.42 0 0 1 73.98 6a3.59 3.59 0 0 1 2-.53 3.4 3.4 0 0 1 1.79.44 2.8 2.8 0 0 1 1.08 1.18 3.66 3.66 0 0 1 .36 1.63 4 4 0 0 1 0 .49 2.27 2.27 0 0 1-.09.52h-4.87a2.34 2.34 0 0 0 .44 1.12 2 2 0 0 0 .81.63 2.73 2.73 0 0 0 1 .2 4.1 4.1 0 0 0 1.2-.17 5.6 5.6 0 0 0 1-.44l.08 1.56a4.46 4.46 0 0 1-1 .4 5.17 5.17 0 0 1-1.45.14zm-2.07-4.74h3a1.74 1.74 0 0 0-.13-.67 1.39 1.39 0 0 0-.42-.57 1.36 1.36 0 0 0-.8-.23 1.53 1.53 0 0 0-1.13.42 2 2 0 0 0-.52 1.05z"/><text id="text19" x="28.96" y="22.75" style="font-size:5.76000023px;font-family:Ubuntu-Regular,Ubuntu;fill:#606060">
    <tspan id="tspan15" style="letter-spacing:-.04em">T</tspan>
    <tspan x="31.99" y="22.75" id="tspan17">racing and metrics</tspan>
  </text></svg>